<svg xmlns="http://www.w3.org/2000/svg" viewBox="0 0 24 24" fill="none" stroke="black" stroke-width="1.65" stroke-linecap="round" stroke-linejoin="round">
<path d="M12 3a9 9 0 1 0 0 18h1.3a2.2 2.2 0 0 0 1.6-3.7 1.6 1.6 0 0 1 1.1-2.7h1A4 4 0 0 0 21 11c0-1.1-.3-2.2-.8-3.2"/>
<circle cx="6.8" cy="10" r=".7"/><circle cx="8.9" cy="6.8" r=".7"/><circle cx="6.9" cy="14.1" r=".7"/>
<path d="m14.2 10.5 6-7.3a1.3 1.3 0 0 1 1.9 1.7l-6.6 6.8"/>
<path d="M15.5 11.7c-.1 1.7-1.5 3.1-4 2.7.9-.8.7-1.8 1.3-2.7.7-1 1.8-1.1 2.7 0Z"/>
</svg>
